<svg xmlns="http://www.w3.org/2000/svg" viewBox="0 0 547.06 956.39"><defs><style>.cls-1{fill:#f2f2f2;}</style></defs><title>Asset 1</title><g id="Layer_2" data-name="Layer 2"><g id="Layer_1-2" data-name="Layer 1"><path class="cls-1" d="M323,.18c10.67,0,21.34-.22,32,0,23.24.57,48.44,23,49.87,46.18,1.33,21.71,1,43.57.31,65.34-.43,14.69-8,26.64-18.85,36.21-3.35,2.94-3.52,5-1.24,8.72,11.44,18.65,17,39.23,19.07,60.83.6,6.12,1,12.27,1.14,18.41.15,5.93-2.49,8.43-8.51,8.49-6.33.07-12.66,0-19,0-9.12,0-11.38-2.57-11.9-11.91-.92-16.68-3.27-33.17-10.94-48.26-3.21-6.32-7.61-12.05-11.72-17.88-4.35-6.17-10.71-5.65-16.7-3.66-5.82,1.94-5.89,7.5-5.91,12.57-.06,18,0,36,0,54,0,14-1.08,15.14-14.93,15.14-4.33,0-8.67,0-13,0-9,0-11.68-2.64-11.68-11.53q0-61.48,0-123v-98C281,2,283.05,0,293.05,0s20,0,30,0ZM320.66,81H321c0,10.82-.28,21.65.1,32.45.21,6,3.45,8.64,9.35,8.74,6.66.11,13.32.19,20,0A16.2,16.2,0,0,0,366,106q.11-25,0-50a16.29,16.29,0,0,0-16.34-16.56c-5.33-.12-10.66,0-16,0-9.91,0-12.76,2.62-13,12.62C320.5,61.69,320.66,71.35,320.66,81Z"/><path class="cls-1" d="M422,468.18q0-55.5,0-111c0-9.07,2.07-11.18,11.11-11.17,20.49,0,41-.18,61.49.19,26.08.46,50.29,23.83,51.63,49.86.72,13.79.87,27.63.83,41.45-.11,34.15-.06,68.3-.9,102.44-.61,24.54-24,48.24-48.74,49.42-21.77,1-43.61.83-65.43.94-7.19,0-10-3.26-10-10.66Q422,523.92,422,468.18Zm39.4-.24q0,34,0,67.93a37,37,0,0,0,.31,6c1,5.81,4,8.34,9.86,8.4,6.49.07,13,.09,19.48,0A16,16,0,0,0,507,534.33q.14-66.45,0-132.88a16.25,16.25,0,0,0-15.48-15.95c-7-.26-14-.16-21,0-4.58.09-7.46,2.6-8.31,7.11a40.24,40.24,0,0,0-.76,7.41Q461.34,434,461.39,467.94Z"/><path class="cls-1" d="M265.5,834.67q0,45,0,90c0,9.7-2.11,11.79-11.65,11.8-5.83,0-11.66,0-17.49,0-7.31-.08-10.34-3.09-10.35-10.29,0-15.32,0-30.64,0-46,0-7.82-3.27-11.25-11.18-11.44-7.66-.18-15.33-.2-23,0-8,.22-11.46,3.84-11.5,11.85-.09,15.33,0,30.65-.05,46,0,7-2.66,9.76-9.53,9.85s-13.66.1-20.49,0c-6.53-.1-9.29-3-9.29-9.6,0-60.47-.1-120.93.06-181.39.07-27.48,24.83-52.64,52.19-53.18,9.45-.18,19.11-.54,28.34,1.07,24.21,4.24,43.32,26.81,43.69,51.44.44,30,.1,60,.1,89.94ZM226,784c0-12,.12-24,0-36a16.61,16.61,0,0,0-16.53-16.56c-3.33-.08-6.66,0-10,0-11.89,0-19,7-19.11,18.82-.1,10,0,20,0,30,0,12.49-.08,25,0,37.47.08,8.52,3.16,11.55,11.31,11.56q11.75,0,23.49,0c7.92,0,10.83-2.88,10.86-10.8C226,807,226,795.47,226,784Z"/><path class="cls-1" d="M124.24,875.56c0,11.46,1,23-.19,34.37-2.61,25.26-27.2,46.68-52.62,46.45-10.25-.09-20.81.14-30.68-2.14-21.53-5-38.12-25.7-39.87-47.87-.6-7.62-.78-15.29-.8-22.93,0-7.88,2.67-10.37,10.56-10.42,6.5,0,13-.06,19.49,0,7.2.08,9.83,2.68,10,10,.13,5.83,0,11.66,0,17.49a16.57,16.57,0,0,0,16.35,16.68c4.16.11,8.33.1,12.49,0,8.24-.2,15.61-6,15.85-14.32.55-18.61.47-37.25-.06-55.86-.21-7.49-7.74-13.28-15.5-13.6-7.14-.28-14.35,0-21.4-1C22.93,829.2,2.3,808.11,1,782.86A620.72,620.72,0,0,1,1.27,718c1.14-20.72,22.38-42.69,43.22-45.6,16-2.23,32.34-3.75,47.55,3.68,21.12,10.31,32.43,27.38,33.11,51.1.18,6,.09,12,0,18-.09,6.34-2.89,9.16-9.17,9.22q-10.76.11-21.5,0c-5.87-.06-8.51-2.6-8.71-8.51-.22-6.33.22-12.7-.42-19-1-9.65-6.49-15.13-16.11-16a69.2,69.2,0,0,0-16.39.63c-7.14,1.11-12.62,8.06-12.66,15.3-.09,16.83-.12,33.66,0,50.49.07,9.74,7.57,16.21,18.67,16.64,7.3.27,14.75-.11,21.87,1.21,22.21,4.12,40.92,23.65,43.32,46,1.22,11.33.21,22.9.21,34.37Z"/><path class="cls-1" d="M281.55,813.89q0-54.46,0-108.95a46.26,46.26,0,0,1,.39-7c.55-3.56,2.76-5.75,6.41-5.81,8.49-.13,17-.22,25.48,0,4.93.14,7.28,3.56,7.3,10,.05,18.66,0,37.32,0,56,0,8.5,0,17,0,25.49.05,6.39,3.2,10.07,9.61,10.4a157.09,157.09,0,0,0,20.47-.07c9.59-.76,15.51-8.56,15.54-19.86.07-23.15,0-46.31,0-69.47,0-1.83,0-3.67.1-5.49.34-4.24,2.6-6.91,6.94-7,8.32-.17,16.65-.09,25,0,4.81,0,7.2,3.21,7.19,7.34-.06,28.47-.18,56.94-.78,85.39-.2,9.17-4.39,17.36-9.72,24.75-2.05,2.84-2.15,5,0,7.94,7.55,10.46,10.76,22.3,10.71,35.16-.09,24.32,0,48.65,0,73,0,8.1-2.63,10.72-10.75,10.76q-9,0-18,0c-8.18,0-10.6-2.46-10.61-10.79q0-36,0-72c0-7.34-1.69-14-8.72-17.82a20.87,20.87,0,0,0-8.49-2.3c-6-.35-12-.15-18-.1-6.89.06-10.38,3.49-10.42,10.48-.08,15,0,30,0,45,0,12.33,0,24.66,0,37,0,7.52-3.06,10.48-10.69,10.54-5.83,0-11.66,0-17.49,0-9.16,0-11.41-2.24-11.42-11.57q0-54.23,0-108.46Z"/><path class="cls-1" d="M0,467.65q0-65.23,0-130.49c0-9.63,2.37-12,12.06-12h102.5c8.3,0,10.58,2.33,10.59,10.72q0,31,0,62c0,7.93-2.56,10.49-10.41,10.51-6.83,0-13.67.07-20.5,0-5.6-.07-8.31-2.61-8.46-8.23-.2-7.66,0-15.33-.13-23-.15-9.15-3.29-12.33-12.34-12.48-7.16-.11-14.33-.12-21.49,0-8.82.15-11.68,3.1-11.69,11.72q0,30,0,60c0,7.95,3,11.2,11,11.5,7.32.27,14.66,0,22,.11,8.23.06,10.06,1.85,10.1,9.9,0,6.83.07,13.66,0,20.5-.09,6.07-2.79,8.86-8.86,9-7.67.13-15.34,0-23,0-8.31,0-11.25,3-11.25,11.57q0,49.75,0,99.5c0,9.86-2.14,12-12,12-6.34,0-12.67,0-19,0-5.65-.05-7.88-1.85-8.9-7.34A30.17,30.17,0,0,1,0,597.65Q0,532.66,0,467.65Z"/><path class="cls-1" d="M422,814.19q0-55.5,0-111c0-9.08,2.06-11.17,11.1-11.18q51.26,0,102.5,0c8.86,0,10.69,1.91,10.73,10.94,0,6,0,12,0,18,0,8.37-2.2,10.45-10.79,10.45q-31.24,0-62.5,0c-7.76,0-11.25,2.79-11.45,10.57-.37,13.82-.33,27.66,0,41.49.15,7.15,4,10.46,11.17,10.66,4.33.12,8.67,0,13,.06,5,.12,7.44,2.27,7.59,7.27q.38,12,.06,24c-.13,5.33-2.89,7.84-8.19,8-4.33.11-8.67,0-13,.07-6.59.16-10.51,3.51-10.64,10.06q-.4,21.24,0,42.49c.15,7.36,3.65,10.19,11.25,10.2q31,0,62,0c9.35,0,11.52,2.15,11.55,11.37,0,6.17,0,12.33,0,18.5,0,7.39-2.77,10.13-10.3,10.23-6.83.09-13.67,0-20.5,0H435c-10.62,0-13-2.35-13-12.7Z"/><path class="cls-1" d="M140.89,92.06c0-13.16-.23-26.32.05-39.48C141.52,25,165.72.73,193.25.22c9.62-.18,19.46-.52,28.83,1.21,24.13,4.46,43,28,43.11,52.62q.21,37.73,0,75.46c-.18,27.74-22.47,52-50.22,53.92-10.68.74-21.72.65-32.2-1.26-22.26-4-41.42-27.94-41.81-50.63-.23-13.15,0-26.32,0-39.48Zm39.31-.33c0,11.49,0,23,0,34.46.06,11.23,6.89,18,18,18.07q5,0,10,0c10.31,0,17.51-6.52,17.63-16.92q.41-35.46,0-70.92c-.11-10.14-7.61-16.9-17.74-17q-5,0-10,0c-10.64.09-17.81,7.19-17.88,17.84C180.14,68.76,180.2,80.24,180.2,91.73Z"/><path class="cls-1" d="M265.31,437.73c0,13.33.3,26.66-.07,40-.72,26.38-23.26,50.08-49.72,51.71-10.68.66-21.76.79-32.18-1.24-23.71-4.64-42.24-28.56-42.34-52.83q-.15-37.49,0-75c.13-28.8,24.43-53.61,53.23-54.2,9.12-.18,18.44-.47,27.35,1.1,24,4.23,43,26.76,43.69,51,.36,13.15.06,26.31.06,39.47Zm-39.32,0c0-11.82.1-23.64,0-35.45a16.63,16.63,0,0,0-16.73-16.86c-3.66-.08-7.32-.05-11,0-10.08.09-17.68,6.83-17.81,17q-.47,35.44,0,70.9c.15,10.66,7.41,16.93,18.14,17h9.49c11.15,0,17.86-6.76,17.91-18.06C226,460.72,226,449.23,226,437.75Z"/><path class="cls-1" d="M281.86,437.63c0-13.66-.47-27.34.1-41,1.1-26.28,25.42-50,51.59-50.43,9.62-.18,19.45-.51,28.85,1.13,24.23,4.2,43.66,28.09,43.76,52.63q.16,37.49,0,75c-.1,27.89-22.53,52.55-50.29,54.48-10.35.72-21.06.71-31.22-1.1-23-4.11-42-26.9-42.75-50.24-.45-13.48-.08-27-.08-40.47Zm39.32.17c0,11.82-.06,23.64,0,35.45.07,10,7.07,16.92,16.93,17a97.47,97.47,0,0,1,10,.06c8.82,1,18.32-4.9,18.55-17.07q.66-35.19,0-70.4c-.2-11.2-7.52-17.39-18.82-17.43-3.16,0-6.32,0-9.49,0-10.08.16-17.12,7.25-17.17,17.42C321.12,414.5,321.17,426.15,321.18,437.8Z"/><path class="cls-1" d="M0,122.34q0-55,0-109.93C0,2.15,2.11,0,12.15,0H113.59c9.14,0,11.5,2.37,11.55,11.49,0,5.83.11,11.66,0,17.49-.17,7.7-3,10.42-10.72,10.42q-31.47,0-63,0c-8.14,0-11.25,3-11.27,11q0,25.74,0,51.47c0,7.52,2.76,10.28,10.15,10.33,4,0,8-.11,12,0,6.67.24,9.72,3.32,9.82,10s.08,13.33,0,20c-.08,7-3.11,10-10,10.16-4.16.07-8.33-.06-12.49,0-6.26.16-9.43,3.35-9.44,9.69,0,23.48,0,47,0,70.45,0,9.14-2.72,11.81-12,11.83-5.83,0-11.66,0-17.49,0-7.5-.06-10.54-3-10.65-10.64-.1-6.33,0-12.66,0-19Z"/><path class="cls-1" d="M203.13,244.39c-15.31,0-30.63-.07-45.94,0-10.23.06-15.28-1.18-14.31-13.91.4-5.3.05-10.65.07-16,0-7.53,2.55-10.14,10.19-10.25,7.16-.11,14.32,0,21.47,0q38.2,0,76.41,0c9.71,0,12.16,2.44,12.17,12,0,5.66,0,11.32,0,17,0,8-3,11.11-11.12,11.15C235.76,244.44,219.44,244.39,203.13,244.39Z"/><path class="cls-1" d="M344.43,550.26q24,0,47.93,0c9.18,0,11.79,2.7,11.81,12,0,5.66,0,11.32,0,17,0,8-3.11,11.11-11.21,11.17-10.48.08-21,0-31.45,0-21.47,0-42.94,0-64.41,0-12,0-13.9-3.47-13.27-13.38.28-4.47,0-9,.05-13.48,0-11.62,1.65-13.28,13.13-13.29Z"/><path class="cls-1" d="M203.23,550.26q24.21,0,48.42,0c9.29,0,11.6,2.27,11.62,11.32q0,9,0,18c0,7.91-2.75,10.74-10.77,10.81-11.32.09-22.63,0-33.95,0h-62.9c-10,0-12.64-2.68-12.64-12.73,0-5.49,0-11,0-16.47,0-8,2.81-10.86,10.79-10.9C170.28,550.21,186.75,550.27,203.23,550.26Z"/></g></g></svg>